<?xml version="1.0" encoding="utf-8"?>
<!-- Generator: Adobe Illustrator 26.0.1, SVG Export Plug-In . SVG Version: 6.00 Build 0)  -->
<svg version="1.1" id="Layer_1" xmlns="http://www.w3.org/2000/svg" xmlns:xlink="http://www.w3.org/1999/xlink" x="0px" y="0px"
	 viewBox="0 0 62.73 58.22" style="enable-background:new 0 0 62.73 58.22;" xml:space="preserve">
<style type="text/css">
	.st0{fill:#E6F2DB;}
	.st1{fill:#19A74A;}
	.st2{fill:#84BC93;}
	.st3{fill:#331400;}
	.st4{fill:#EBB69D;}
	.st5{fill:#D0D2D3;}
	.st6{fill:#693E15;}
	.st7{fill:#8C5426;}
	.st8{clip-path:url(#SVGID_00000065037009065760334450000016245854703673402547_);fill:#EBB69D;}
	.st9{clip-path:url(#SVGID_00000065037009065760334450000016245854703673402547_);fill:#19A74A;}
	.st10{clip-path:url(#SVGID_00000065037009065760334450000016245854703673402547_);fill:#BBBDBF;}
	.st11{clip-path:url(#SVGID_00000065037009065760334450000016245854703673402547_);fill:#7F4C20;}
	.st12{clip-path:url(#SVGID_00000009580866671063176020000017841389053063093945_);}
	.st13{fill:#7F4C20;}
	.st14{fill:#FFFFFF;}
	.st15{fill:#71AA82;}
	.st16{fill:#BBBDBF;}
	.st17{fill:#106337;}
	.st18{fill:#905728;}
	.st19{clip-path:url(#SVGID_00000026124530649683498060000015811877143148969881_);}
	.st20{fill:#1D0000;}
	.st21{fill:#3B2314;}
	.st22{fill:#6E6C6B;}
	.st23{fill:none;}
	.st24{fill:#2B0000;}
</style>
<g>
	<circle class="st0" cx="32.28" cy="29.22" r="29"/>
	<g>
		<path class="st1" d="M45.03,43.72c0.43,0,0.83,0,1.24,0c0.06,0.81-0.08,1.55-0.58,2.21c-0.37,0.49-0.82,0.86-1.39,1.08
			c-0.36,0.14-0.75,0.21-1.14,0.21c-2.49,0-4.99,0-7.48,0c-1.08,0-2.17,0-3.25,0c-2.43,0-4.85,0-7.28,0c-1.4,0-2.8,0.01-4.21,0
			c-1.16-0.01-2.06-0.53-2.67-1.52c-0.29-0.47-0.43-1-0.43-1.55c0-3.73,0-7.46,0-11.19c0-3.21,0-6.41,0-9.62c0-2.25,0-4.51,0-6.76
			c0-1.44,0.96-2.66,2.36-3c0.22-0.05,0.46-0.08,0.69-0.08c1.1-0.01,2.19,0,3.29,0c0.07,0,0.13,0,0.2,0
			c-0.02-0.2-0.06-0.39-0.07-0.58c-0.03-0.51,0.32-0.87,0.83-0.87c1.31,0,2.63,0,3.94,0c0.17,0,0.21-0.05,0.22-0.21
			c0.07-0.84,0.1-1.69,0.24-2.52c0.26-1.58,1.88-2.5,3.34-1.92c1,0.4,1.51,1.18,1.62,2.23c0.08,0.77,0.14,1.54,0.2,2.31
			c0.01,0.12,0.08,0.11,0.16,0.11c0.84,0,1.68,0,2.52,0c0.49,0,0.98,0,1.47,0c0.51,0,0.84,0.33,0.83,0.83c0,0.2-0.03,0.41-0.05,0.62
			c0.06,0,0.13,0,0.2,0c1.11,0,2.21,0,3.32,0c0.97,0,1.77,0.37,2.4,1.11c0.47,0.55,0.71,1.2,0.71,1.93c0,3.32,0,24.64,0,27.97
			c0,0.05-0.01-0.57-0.01-0.51c-0.41,0-0.81,0-1.24,0c0-0.06,0,0.56,0,0.5c0-3.28-0.01-24.55,0.01-27.83
			c0.01-1.16-0.94-1.94-1.93-1.92c-1.25,0.03-2.5,0.01-3.76,0c-0.12,0-0.19,0.04-0.27,0.14c-0.74,1.1-1.77,1.68-3.09,1.73
			c-0.5,0.02-1,0-1.5,0c-0.9,0-1.79,0.01-2.69,0.01c-1.24,0-2.48,0.01-3.72,0c-0.97-0.01-1.82-0.32-2.53-0.99
			c-0.24-0.23-0.43-0.52-0.66-0.77c-0.05-0.05-0.13-0.11-0.2-0.11c-1.26-0.01-2.52-0.01-3.77,0c-1.08,0.01-1.85,0.81-1.85,1.88
			c0,4.94,0,9.88,0,14.82c0,3.41,0,6.82,0,10.23c0,0.79,0.01,1.58,0,2.37c-0.01,1.13,0.91,1.92,1.88,1.9
			c0.86-0.02,1.72,0.01,2.59,0.01c3.67,0,7.33-0.01,11-0.01c2.85,0,5.71,0,8.56,0.01c0.47,0,0.88-0.13,1.25-0.42
			c0.43-0.34,0.63-0.81,0.67-1.35C45.04,44.04,45.03,43.89,45.03,43.72z M32.01,14.67c0.54,0,1.08,0,1.62,0c0.93,0,1.87,0,2.8,0
			c0.26,0,0.45-0.18,0.45-0.42c0-0.24-0.18-0.42-0.44-0.43c-0.07,0-0.13,0-0.2,0c-2.84,0-5.67,0-8.51,0c-0.08,0-0.16,0-0.23,0.01
			c-0.17,0.02-0.29,0.12-0.34,0.28c-0.11,0.3,0.1,0.57,0.45,0.57C29.07,14.67,30.54,14.67,32.01,14.67z M32,10.63
			c0.6,0,1.07-0.47,1.07-1.07c0-0.55-0.49-1.04-1.03-1.04c-0.6,0-1.08,0.47-1.08,1.06C30.94,10.15,31.42,10.63,32,10.63z"/>
		<path class="st1" d="M26.83,20.4c0.4-0.35,0.78-0.68,1.15-1c0.16-0.14,0.31-0.27,0.47-0.4c0.18-0.15,0.39-0.13,0.52,0.02
			c0.13,0.15,0.11,0.37-0.06,0.52c-0.65,0.57-1.3,1.14-1.95,1.7c-0.09,0.08-0.12,0.15-0.12,0.27c0.01,0.64,0,1.28,0,1.92
			c0,0.38-0.26,0.65-0.65,0.65c-1.21,0-2.43,0-3.64,0c-0.43,0-0.68-0.25-0.68-0.69c0-0.94,0-1.88,0-2.82c0-0.27,0-0.55,0-0.82
			c0.01-0.38,0.27-0.63,0.65-0.63c1.22,0,2.44,0,3.66,0c0.4,0,0.66,0.26,0.66,0.66C26.83,19.96,26.83,20.16,26.83,20.4z M22.56,19.8
			c0,1.2,0,2.38,0,3.58c1.2,0,2.39,0,3.58,0c0-0.48,0-0.95,0-1.43c-0.38,0.33-0.74,0.65-1.1,0.96c-0.25,0.22-0.46,0.19-0.64-0.08
			c-0.35-0.54-0.7-1.08-1.05-1.63c-0.05-0.07-0.08-0.18-0.07-0.26c0.01-0.16,0.11-0.27,0.26-0.31c0.16-0.04,0.3,0.02,0.39,0.16
			c0.29,0.45,0.59,0.9,0.88,1.35c0.01,0,0.03-0.01,0.03-0.01c0.42-0.36,0.83-0.72,1.25-1.08c0.03-0.03,0.06-0.07,0.06-0.11
			c0-0.37,0-0.74,0-1.13C24.94,19.8,23.76,19.8,22.56,19.8z"/>
		<path class="st1" d="M26.83,28.68c0.15-0.13,0.27-0.23,0.39-0.34c0.39-0.34,0.77-0.67,1.16-1.01c0.06-0.05,0.13-0.11,0.21-0.14
			c0.17-0.06,0.33,0.01,0.42,0.16c0.08,0.14,0.06,0.33-0.07,0.44c-0.37,0.33-0.74,0.65-1.12,0.98c-0.29,0.26-0.59,0.51-0.88,0.77
			c-0.06,0.05-0.1,0.15-0.1,0.22c-0.01,0.64,0,1.28,0,1.92c0,0.42-0.26,0.67-0.68,0.67c-1.2,0-2.39,0-3.59,0
			c-0.46,0-0.7-0.24-0.7-0.7c0-1.18,0-2.37,0-3.55c0-0.47,0.24-0.71,0.71-0.71c1.19,0,2.37,0,3.56,0c0.46,0,0.7,0.25,0.7,0.7
			C26.83,28.28,26.83,28.46,26.83,28.68z M22.56,28.09c0,1.2,0,2.39,0,3.58c1.2,0,2.39,0,3.57,0c0-0.48,0-0.94,0-1.43
			c-0.05,0.04-0.09,0.07-0.12,0.1c-0.34,0.29-0.67,0.59-1.01,0.88c-0.21,0.18-0.44,0.15-0.59-0.08c-0.1-0.16-0.2-0.32-0.31-0.48
			c-0.25-0.39-0.51-0.78-0.76-1.17c-0.13-0.2-0.09-0.41,0.09-0.53c0.18-0.11,0.38-0.06,0.51,0.15c0.04,0.06,0.07,0.11,0.11,0.17
			c0.25,0.39,0.5,0.77,0.76,1.17c0.37-0.33,0.73-0.65,1.11-0.96c0.17-0.14,0.25-0.28,0.23-0.51c-0.02-0.29-0.01-0.58-0.01-0.88
			C24.94,28.09,23.76,28.09,22.56,28.09z"/>
		<path class="st1" d="M26.83,36.97c0.19-0.16,0.35-0.3,0.51-0.45c0.36-0.32,0.73-0.64,1.09-0.95c0.14-0.12,0.31-0.14,0.45-0.05
			c0.14,0.09,0.19,0.23,0.15,0.39c-0.03,0.08-0.09,0.16-0.16,0.22c-0.64,0.57-1.29,1.13-1.94,1.69c-0.08,0.07-0.11,0.14-0.11,0.24
			c0,0.62,0,1.25,0,1.87c0,0.48-0.23,0.71-0.7,0.71c-1.21,0-2.41,0-3.62,0c-0.38,0-0.64-0.24-0.64-0.62c-0.01-1.23-0.01-2.47,0-3.7
			c0-0.38,0.25-0.63,0.63-0.63c0.76,0,1.51,0.01,2.27,0.01c0.45,0,0.9-0.01,1.35-0.01c0.48,0,0.71,0.23,0.71,0.72
			C26.83,36.58,26.83,36.76,26.83,36.97z M26.14,38.52c-0.09,0.08-0.16,0.14-0.23,0.2c-0.31,0.27-0.61,0.53-0.92,0.8
			c-0.18,0.15-0.41,0.14-0.53-0.03c-0.39-0.58-0.77-1.17-1.14-1.76c-0.11-0.17-0.04-0.37,0.13-0.47c0.18-0.11,0.37-0.06,0.51,0.15
			c0.28,0.44,0.57,0.88,0.85,1.31c0.02-0.01,0.04-0.01,0.04-0.01c0.41-0.36,0.83-0.71,1.24-1.07c0.03-0.03,0.06-0.07,0.06-0.11
			c0-0.38,0-0.75,0-1.14c-1.21,0-2.39,0-3.59,0c0,1.2,0,2.39,0,3.59c1.21,0,2.39,0,3.58,0C26.14,39.48,26.14,39.02,26.14,38.52z"/>
		<path class="st1" d="M35.75,24.07c-1.85,0-3.69,0-5.54,0c-0.29,0-0.45-0.13-0.47-0.36c-0.02-0.26,0.15-0.44,0.43-0.44
			c0.89,0,1.78,0,2.67,0c2.82,0,5.64,0,8.46,0c0.06,0,0.12,0,0.18,0.01c0.2,0.04,0.33,0.22,0.31,0.42c-0.02,0.2-0.17,0.35-0.37,0.37
			c-0.07,0.01-0.14,0-0.22,0C39.38,24.07,37.56,24.07,35.75,24.07z"/>
		<path class="st1" d="M35.75,32.36c-1.85,0-3.69,0-5.54,0c-0.29,0-0.45-0.13-0.47-0.36c-0.02-0.26,0.15-0.44,0.43-0.44
			c0.89,0,1.78,0,2.67,0c2.82,0,5.64,0,8.46,0c0.06,0,0.12,0,0.18,0.01c0.2,0.04,0.33,0.22,0.31,0.42c-0.02,0.2-0.17,0.35-0.37,0.37
			c-0.07,0.01-0.14,0-0.22,0C39.38,32.36,37.56,32.36,35.75,32.36z"/>
		<path class="st1" d="M35.75,40.64c-1.85,0-3.69,0-5.54,0c-0.29,0-0.45-0.13-0.47-0.36c-0.02-0.26,0.15-0.44,0.43-0.44
			c0.89,0,1.78,0,2.67,0c2.82,0,5.64,0,8.46,0c0.06,0,0.12,0,0.18,0.01c0.2,0.04,0.33,0.22,0.31,0.42c-0.02,0.2-0.17,0.35-0.37,0.37
			c-0.07,0.01-0.14,0-0.22,0C39.38,40.64,37.56,40.64,35.75,40.64z"/>
	</g>
	<g>
		<g>
			<circle class="st2" cx="52.25" cy="10.48" r="10.48"/>
			<path class="st3" d="M47.53,10.43c0,0-0.59,4.32,2.72,4.38h3.51c0,0,3.12-0.8,2.5-4.38H47.53z"/>
			<g>
				<rect x="50.54" y="13.74" class="st4" width="3.22" height="1.86"/>
				<path class="st5" d="M51.44,15.17c0.52-0.02,1.02-0.18,1.42-0.44c0.32-0.21,0.58-0.45,0.78-0.74c0.04-0.06,0.08-0.12,0.12-0.19
					v-0.07h-3.22v1.39C50.84,15.16,51.14,15.18,51.44,15.17z"/>
			</g>
			<path class="st4" d="M56.13,8.67c0-2.98-1.79-4.7-4-4.71c-0.01,0-0.01,0-0.02,0c0,0,0,0,0,0c0,0,0,0,0,0c-0.01,0-0.01,0-0.02,0
				c-2.21,0.01-4,1.73-4,4.71c0,3.87,2.79,6.13,4.02,6.14l0,0c0,0,0,0,0,0c0,0,0,0,0,0l0,0C53.35,14.8,56.13,12.54,56.13,8.67z"/>
			<g>
				<path class="st4" d="M55.74,9.78l-0.23,1.76c0.9,0.4,1.04-1.67,1.04-1.67C56.34,9.35,55.74,9.78,55.74,9.78z"/>
				<path class="st4" d="M47.78,9.87c0,0,0.14,2.07,1.04,1.67l-0.23-1.76C48.59,9.78,47.99,9.35,47.78,9.87z"/>
			</g>
			<path class="st6" d="M47.2,8.31c-0.29,6.36,1.1,6.92,1.1,6.92c1.86,0.38,1.95-0.41,1.95-0.41c-2.45-0.65-1.99-6.47-1.99-6.47
				s1.5-1.07,1.74-2.36l0.06-2.02C50.07,3.96,48.09,4.11,47.2,8.31z"/>
			<path class="st7" d="M50.02,4.81c-0.05,0.27,0.32,1.06,0.59,1.13c0.34,0.1,0.24-0.22,0.29-0.46c0.19,0.32,0.48,0.73,0.84,0.87
				c-0.01-0.14,0.01-0.29,0.05-0.43c0.31,0.3,0.81,0.69,1.2,0.87c0.08-0.19,0.06-0.43-0.03-0.62c0.54,0.1,0.97,0.67,1.5,0.8
				c0-0.14-0.01-0.3,0.05-0.43c0.48,0.1,0.99,0.54,1.42,0.79c0.02-0.17-0.02-0.34-0.03-0.5c0.19,0.09,0.35,0.27,0.54,0.36
				c-0.02-0.42-0.35-1.08-0.83-1.06c0.01,0.09-0.01,0.2,0.02,0.28c-0.27-0.39-0.75-0.92-1.13-1.2c-0.01,0.15,0.07,0.29,0.11,0.43
				c-0.23-0.25-0.55-0.61-0.88-0.69c-0.03,0.27,0.06,0.53,0.02,0.8c-0.28-0.1-0.36-0.55-0.65-0.7c0,0.1-0.06,0.22-0.05,0.33
				c-0.35-0.15-0.65-0.5-0.98-0.7c0.01,0.25,0.15,0.49,0.3,0.69c-0.16-0.21-0.31-0.52-0.55-0.61c-0.03,0.18,0.01,0.37,0.12,0.51
				c-0.25-0.09-0.37-0.33-0.57-0.47c0,0.04-0.04,0.14-0.04,0.2c-0.29,0.03-0.55-0.34-0.87-0.36c0.02,0.08-0.01,0.17,0.03,0.25
				C50.35,4.87,50.1,4.73,50.02,4.81"/>
			<g>
				<defs>
					<path id="SVGID_1_" d="M62.57,10.5c0,5.77-4.68,10.45-10.45,10.45c-5.77,0-10.45-4.68-10.45-10.45
						c0-5.77,4.68-10.45,10.45-10.45C57.89,0.04,62.57,4.72,62.57,10.5z"/>
				</defs>
				<clipPath id="SVGID_00000085240795442251980400000003315381955743760818_">
					<use xlink:href="#SVGID_1_"  style="overflow:visible;"/>
				</clipPath>
				<path style="clip-path:url(#SVGID_00000085240795442251980400000003315381955743760818_);fill:#EBB69D;" d="M50.52,15.46
					l-3.87,1.2c0,0-1.36,0.24-1.7,1.65l-0.59,2.56h7.72h0.07h7.72l-0.59-2.56c-0.35-1.41-1.7-1.65-1.7-1.65l-3.87-1.2H50.52z"/>
				<path style="clip-path:url(#SVGID_00000085240795442251980400000003315381955743760818_);fill:#19A74A;" d="M55.51,16.02
					l2.07,0.64c0,0,1.36,0.24,1.7,1.65l0.59,2.56h-7.72h-0.07h-7.72l0.59-2.56c0.35-1.41,1.7-1.65,1.7-1.65l2.05-0.64
					C48.7,16.02,51.6,17.96,55.51,16.02z"/>
				<path style="clip-path:url(#SVGID_00000085240795442251980400000003315381955743760818_);fill:#BBBDBF;" d="M44.95,18.87
					c0.35-1.41,1.7-1.65,1.7-1.65l2.05-0.64c0,0,2.9,1.94,6.8,0l2.07,0.64c0,0,1.36,0.24,1.7,1.65l0.46,1.99h0.13l-0.59-2.56
					c-0.35-1.41-1.7-1.65-1.7-1.65l-2.07-0.64c-3.91,1.94-6.8,0-6.8,0l-2.05,0.64c0,0-1.36,0.24-1.7,1.65l-0.59,2.56h0.13
					L44.95,18.87z"/>
				<path style="clip-path:url(#SVGID_00000085240795442251980400000003315381955743760818_);fill:#7F4C20;" d="M49.91,5.84
					c0,0,1.62,2.53,5.84,2.5c0,0,0.46,5.82-1.99,6.47c0,0,0.15,0.9,2.01,0.52c0,0,1.42,0.28,1.2-6.71c0,0,0.02-6.67-5.89-5.37
					C51.09,3.24,48.88,4.17,49.91,5.84z"/>
			</g>
		</g>
		<g>
			<circle class="st2" cx="10.64" cy="47.52" r="10.48"/>
			<g>
				<defs>
					<circle id="SVGID_00000051363359747332226820000001278439841387618999_" cx="10.64" cy="47.52" r="10.48"/>
				</defs>
				<clipPath id="SVGID_00000008141590407957259460000015118266741553299090_">
					<use xlink:href="#SVGID_00000051363359747332226820000001278439841387618999_"  style="overflow:visible;"/>
				</clipPath>
				<g style="clip-path:url(#SVGID_00000008141590407957259460000015118266741553299090_);">
					<g>
						<rect x="8.62" y="50.61" class="st4" width="3.47" height="1.83"/>
						<path class="st5" d="M9.59,52.01c0.56-0.02,1.1-0.18,1.53-0.43c0.35-0.2,0.63-0.44,0.84-0.72c0.04-0.05,0.09-0.12,0.13-0.18
							v-0.06H8.62v1.37C8.94,52,9.27,52.02,9.59,52.01z"/>
					</g>
					<path class="st4" d="M10.35,40.36L10.35,40.36C10.35,40.36,10.35,40.36,10.35,40.36C10.35,40.36,10.35,40.36,10.35,40.36
						L10.35,40.36c-2.22,0.06-3.91,0.97-3.9,4.12c0,1.86,0.17,2.41,0.72,4.54c0.38,1.47,2.37,2.25,3.14,2.3c0.02,0,0.03,0,0.05,0
						c0.02,0,0.03,0,0.05,0c0.76-0.05,2.76-0.83,3.14-2.3c0.54-2.13,0.71-2.68,0.72-4.54C14.26,41.33,12.57,40.42,10.35,40.36z"/>
					<path class="st13" d="M8.55,50.67c0.67,0.42,1.35,0.62,1.75,0.64c0.02,0,0.03,0,0.05,0c0.02,0,0.03,0,0.05,0
						c0.4-0.03,1.14-0.25,1.8-0.67C12.2,50.64,10.67,51.37,8.55,50.67z"/>
					<path class="st4" d="M13.83,45.77l-0.24,1.86c0.95,0.42,1.1-1.76,1.1-1.76C14.47,45.31,13.83,45.77,13.83,45.77z"/>
					<path class="st4" d="M5.9,45.86c0,0,0.15,2.18,1.1,1.76l-0.24-1.86C6.76,45.77,6.12,45.31,5.9,45.86z"/>
					<path class="st4" d="M12.12,52.43l4.69,1.22c0,0,1.6,0.25,2.01,1.68l0.7,2.61H10.4h-0.08H1.2l0.7-2.61
						c0.41-1.44,2.01-1.68,2.01-1.68l4.67-1.22H12.12z"/>
					<path class="st14" d="M1.2,57.94l0.7-2.61c0.41-1.44,2.01-1.68,2.01-1.68l4.67-1.22h3.53l4.69,1.22c0,0,1.6,0.25,2.01,1.68
						l0.7,2.61"/>
					<g>
						<polygon class="st15" points="10.66,52.43 10.36,52.43 10.35,52.43 10.06,52.43 9.2,53.79 9.97,54.65 10.35,54.65 
							10.36,54.65 10.75,54.65 11.52,53.79 						"/>
						<path class="st15" d="M10.78,54.49c-0.5-0.53-0.71-1.33-0.58-2.05h-0.14L9.2,53.79l0.77,0.86h0.78l0.09-0.11
							C10.82,54.53,10.8,54.51,10.78,54.49z"/>
					</g>
					<g>
						<polygon class="st16" points="12.09,51.58 10.34,52.49 11.5,54.23 13.59,52.97 						"/>
						<polygon class="st14" points="12.09,51.58 10.34,52.49 11.52,54 13.47,52.86 						"/>
					</g>
					<g>
						<polygon class="st16" points="8.61,51.52 10.34,52.43 9.2,54.17 7.11,52.91 						"/>
						<polygon class="st14" points="8.61,51.52 10.35,52.43 9.18,53.94 7.23,52.81 						"/>
					</g>
					<path class="st1" d="M7.25,52.79l-3.34,0.87c0,0-1.6,0.25-2.01,1.68l-0.7,2.61h18.31l-0.7-2.61c-0.41-1.44-2.01-1.68-2.01-1.68
						l-3.5-1l-2.96,5.16L7.25,52.79z"/>
					<polygon class="st15" points="9.95,54.65 9.53,56.5 10.34,57.81 11.1,56.5 10.74,54.65 					"/>
					<g>
						<polygon class="st17" points="7.25,52.79 5.67,53.2 6.56,53.54 6.01,54.17 9.2,57.94 10.44,57.94 						"/>
						<polygon class="st17" points="13.31,52.65 15.05,53.15 14.16,53.54 14.71,54.17 11.52,57.94 10.28,57.94 						"/>
					</g>
					<path class="st13" d="M13.83,47.86l-0.29,0.19l0.29-2.93l-0.48-1.01c0,0,0.44-2.25-2.8-2.32c0,0-2.73-0.15-3.08,1.09
						c0,0-1.48-2.42,2.5-3c0,0,3.98-0.33,4.41,2.09c0,0,0.31,2.66-0.21,3.81L13.83,47.86z"/>
					<path class="st13" d="M6.28,43.31c0,0,0.04,0.98,0.22,2.46l0.35,2.09l0.29,0.19l-0.29-2.93l0.49-1.17l0.1-0.95l0.04-0.13v-1.61
						C6.32,41.42,6.28,43.31,6.28,43.31z"/>
					<path class="st18" d="M7.66,41.46c0.07,0.11,0.22,0.24,0.26,0.33c0.02-0.15-0.07-0.28-0.05-0.42c0.22,0.11,0.49,0.14,0.71,0.22
						c-0.01-0.12-0.03-0.28-0.07-0.39c0.37-0.03,0.6,0.29,0.94,0.3c0.01-0.19-0.08-0.34-0.09-0.51c0.36-0.01,0.68,0.32,1.04,0.28
						c-0.01-0.12-0.06-0.28-0.09-0.41c0.33-0.02,0.85,0.4,1.11,0.6c0.01-0.16-0.01-0.33,0.02-0.48c0.47,0.18,0.84,0.54,1.26,0.79
						c0.01-0.14-0.04-0.28-0.03-0.42c0.49,0.24,0.76,0.85,1.11,1.24c0-0.12-0.09-0.2-0.09-0.32c0.09,0.12,0.17,0.25,0.26,0.37
						c-0.2-0.27-0.35-0.64-0.48-0.95c0.05,0.11,0.1,0.22,0.16,0.33c-0.2-0.29-0.54-0.57-0.63-0.92c-0.03,0.08,0.02,0.17,0.08,0.24
						c-0.16-0.21-0.51-0.53-0.76-0.63c0.01,0.12,0.14,0.2,0.17,0.32c-0.19-0.11-0.39-0.35-0.6-0.39c0.01,0.03,0,0.09,0.01,0.13
						c-0.24,0.04-0.54-0.19-0.73-0.3c0,0.08,0.04,0.15,0.05,0.22c-0.18-0.04-0.36-0.2-0.55-0.22c-0.02,0.06-0.02,0.13,0,0.19
						c-0.26,0.01-0.52-0.09-0.77-0.07c0.01,0.03,0,0.1,0.01,0.12c-0.13-0.07-0.45-0.16-0.59-0.11c-0.13,0.05-0.1,0.05-0.09,0.21
						c-0.22,0.01-0.44,0-0.66,0c0,0.06-0.03,0.12-0.02,0.19c-0.16,0.01-0.31-0.03-0.47-0.01c0,0.04-0.03,0.07-0.03,0.11
						c-0.15,0.01-0.42-0.05-0.38,0.19c-0.02,0-0.05-0.01-0.07-0.01c-0.02,0.08,0,0.15,0.07,0.17"/>
					<path class="st18" d="M7.15,41.54C7.18,41.8,7.34,42,7.32,42.29c-0.01,0.23-0.09,0.63-0.28,0.78c0,0.61,0.03,1.59-0.39,2.09
						c-0.07-0.19-0.09-0.45-0.2-0.61c0.06,0.04,0.13,0.07,0.2,0.09c-0.04-0.27-0.21-0.63-0.16-0.9c0.1,0.09,0.18,0.17,0.28,0.25
						c0.02-0.18-0.14-0.32-0.18-0.49c-0.05-0.17-0.14-0.57-0.11-0.75c0.13,0.07,0.23,0.21,0.33,0.3c-0.03-0.18-0.02-0.39-0.01-0.58
						c0.08,0.01,0.14,0.07,0.22,0.09c0.03-0.14-0.08-0.25-0.11-0.38c-0.02-0.1-0.02-0.21-0.02-0.31c0.08,0.04,0.16,0.11,0.24,0.16
						c-0.05-0.11-0.14-0.38-0.03-0.47"/>
				</g>
			</g>
		</g>
		<g>
			<circle class="st2" cx="10.48" cy="10.48" r="10.48"/>
			<g>
				<defs>
					<circle id="SVGID_00000128480790039551209100000015796284819832392627_" cx="10.48" cy="10.48" r="10.48"/>
				</defs>
				<clipPath id="SVGID_00000126321042373743294690000003528701649406036620_">
					<use xlink:href="#SVGID_00000128480790039551209100000015796284819832392627_"  style="overflow:visible;"/>
				</clipPath>
				<g style="clip-path:url(#SVGID_00000126321042373743294690000003528701649406036620_);">
					<g>
						<rect x="8.66" y="14.42" class="st4" width="3.6" height="1.9"/>
						<path class="st5" d="M9.66,15.88c0.58-0.02,1.14-0.19,1.59-0.45c0.36-0.21,0.65-0.46,0.87-0.75c0.04-0.06,0.09-0.12,0.13-0.19
							v-0.07h-3.6v1.42C8.99,15.87,9.33,15.89,9.66,15.88z"/>
					</g>
					<path class="st4" d="M10.46,3.78L10.46,3.78C10.46,3.78,10.46,3.78,10.46,3.78C10.46,3.78,10.46,3.78,10.46,3.78L10.46,3.78
						C8.15,3.85,6.4,4.8,6.41,8.06c0.01,1.93,0.18,2.5,0.74,4.71c0.39,1.53,2.46,2.33,3.25,2.38c0.02,0,0.03,0,0.05,0
						c0.02,0,0.04,0,0.05,0c0.79-0.05,2.86-0.86,3.25-2.38c0.56-2.21,0.74-2.78,0.74-4.71C14.52,4.8,12.76,3.85,10.46,3.78z"/>
					<path class="st20" d="M9.23,14.82c0.46,0.2,0.9,0.31,1.17,0.33c0.02,0,0.03,0,0.05,0c0.02,0,0.04,0,0.05,0
						c0.26-0.02,0.65-0.11,1.08-0.29L12,14.29c0,0-1.27,1.43-3.07,0L9.23,14.82"/>
					<path class="st4" d="M14.07,9.4l-0.25,1.93c0.99,0.44,1.14-1.83,1.14-1.83C14.73,8.93,14.07,9.4,14.07,9.4z"/>
					<path class="st4" d="M5.84,9.49c0,0,0.15,2.27,1.14,1.83L6.73,9.4C6.73,9.4,6.06,8.93,5.84,9.49z"/>
					<path class="st4" d="M12.29,16.32l4.87,1.27c0,0,1.66,0.25,2.08,1.75l0.73,2.7h-9.46h-0.08H0.96l0.73-2.7
						c0.42-1.49,2.08-1.75,2.08-1.75l4.85-1.27H12.29z"/>
					<path class="st1" d="M0.96,22.03l0.73-2.7c0.42-1.49,2.08-1.75,2.08-1.75l4.85-1.27h3.67l4.87,1.27c0,0,1.66,0.25,2.08,1.75
						l0.73,2.7"/>
					<g>
						<polygon class="st22" points="10.78,16.32 10.47,16.32 10.46,16.32 10.15,16.32 9.26,17.72 10.06,18.62 10.46,18.62 
							10.47,18.62 10.87,18.62 11.67,17.72 						"/>
						<path class="st22" d="M10.91,18.45c-0.52-0.55-0.74-1.38-0.61-2.13h-0.15l-0.89,1.4l0.8,0.9h0.81l0.1-0.11
							C10.95,18.49,10.93,18.47,10.91,18.45z"/>
					</g>
					<g>
						<polygon class="st16" points="12.26,15.43 10.45,16.38 11.65,18.18 13.82,16.87 						"/>
						<polygon class="st14" points="12.26,15.43 10.45,16.38 11.67,17.94 13.7,16.76 						"/>
					</g>
					<g>
						<polygon class="st16" points="8.65,15.37 10.45,16.32 9.27,18.12 7.1,16.81 						"/>
						<polygon class="st14" points="8.65,15.37 10.46,16.32 9.24,17.88 7.21,16.7 						"/>
					</g>
					<path class="st23" d="M7.24,16.68l-3.46,0.9c0,0-1.66,0.25-2.08,1.75l-0.73,2.7h19l-0.73-2.7c-0.42-1.49-2.08-1.75-2.08-1.75
						l-3.63-1.04l-3.08,5.36L7.24,16.68z"/>
					<polygon class="st22" points="10.04,18.62 9.61,20.53 10.45,21.9 11.24,20.53 10.86,18.62 					"/>
					<g>
						<polygon class="st17" points="7.24,16.68 5.6,17.11 6.52,17.47 5.95,18.12 9.26,22.03 10.55,22.03 						"/>
						<polygon class="st17" points="13.53,16.54 15.33,17.06 14.41,17.47 14.98,18.12 11.67,22.03 10.38,22.03 						"/>
					</g>
					<path class="st20" d="M6.78,9.68l0.2,2.44C5.92,9.25,6.54,5.49,6.54,5.49c0.11-0.98,1.19-1.28,1.19-1.28
						c0.21-1.2,2.39-1.52,2.39-1.52c5.97-0.21,4.39,6.37,4.39,6.37c0,1-0.65,3.33-0.65,3.33l0.24-3.16c0-0.6-0.58-1.24-0.53-1.68
						c0.25-2.62-1.7-2.3-1.7-2.3c-1.18,0.23-2.62,0-2.62,0S6.98,4.47,7.21,7.66C7.21,7.66,7.41,8,6.78,9.68z"/>
					<path class="st4" d="M10.47,13.83c0.66-0.06,1.04-0.36,1.04-0.36c-0.69-0.31-0.99-0.17-1.05-0.13
						c-0.07-0.04-0.37-0.18-1.05,0.13c0,0,0.38,0.31,1.04,0.36v0c0,0,0.01,0,0.01,0C10.46,13.83,10.47,13.83,10.47,13.83
						L10.47,13.83z"/>
					<path class="st20" d="M10.12,12.45c-0.27-0.08-0.7,0.01-0.94,0.15c-0.29,0.16-0.49,0.45-0.58,0.76c-0.16,0.51,0.01,1,0.43,1.32
						c0.07,0.05,0.2,0.16,0.29,0.18c-0.24-0.28-0.42-0.65-0.42-1.02c0-0.56,0.4-1,0.96-1.05c0.15-0.01,0.46,0.02,0.57,0.15
						C10.46,12.7,10.33,12.51,10.12,12.45z"/>
					<path class="st20" d="M10.77,12.45c0.27-0.08,0.7,0.01,0.94,0.15c0.29,0.16,0.49,0.45,0.58,0.76c0.16,0.51-0.01,1-0.43,1.32
						c-0.07,0.05-0.2,0.16-0.29,0.18c0.24-0.28,0.42-0.65,0.42-1.02c0-0.56-0.4-1-0.96-1.05c-0.15-0.01-0.49,0.02-0.59,0.15
						C10.39,12.7,10.55,12.51,10.77,12.45z"/>
					<path class="st20" d="M11.59,14.86c0,0,1.2-0.45,1.82-1.34c0,0-0.61,0.3-1.15,0.27C12.26,13.79,12.11,14.52,11.59,14.86z"/>
					<path class="st20" d="M9.33,14.86c0,0-1.2-0.45-1.82-1.34c0,0,0.61,0.3,1.15,0.27C8.66,13.79,8.81,14.52,9.33,14.86z"/>
					<path class="st20" d="M10.7,14.46c0.05-0.16,0.07-0.54-0.25-0.51c-0.31-0.03-0.29,0.35-0.25,0.51
						c0.07,0.22-0.32,0.44-0.32,0.43l0,0.01l0.56,0.12l0.56-0.12l0-0.01C11.02,14.9,10.64,14.67,10.7,14.46z"/>
					<path class="st24" d="M8.32,3.8c0.16,0.2,0.31,0.4,0.43,0.61c0-0.2-0.01-0.41,0-0.61c0.23,0.14,0.42,0.5,0.7,0.54
						c0.01-0.14,0.01-0.29,0.02-0.42c0.31,0.19,1.05,0.72,1.01-0.01c0.28,0.08,0.5,0.41,0.81,0.46c0-0.06,0.02-0.13,0.01-0.19
						c0.19,0,0.62,0.47,0.63,0.04c0.26,0.02,0.79,0.38,0.99,0.55C13.19,5,13.5,5.28,13.67,5.57c0.05-0.14,0-0.32-0.01-0.5
						c0.11,0.23,0.33,0.57,0.59,0.61c0,0-0.06-0.08-0.07-0.1c0.01,0.11,0.03,0.15,0.07,0.25c-0.03-0.36-0.27-0.79-0.5-1.05
						c0,0.03,0,0.07-0.01,0.1c-0.03-0.13-0.1-0.22-0.19-0.3c-0.01,0.09-0.07,0.2-0.06,0.3c-0.1-0.26-0.25-0.53-0.4-0.77
						c-0.02,0.07-0.08,0.15-0.08,0.26c-0.04-0.23-0.15-0.46-0.35-0.57c-0.01,0.04-0.04,0.1-0.05,0.15c-0.1-0.13-0.17-0.34-0.38-0.3
						c-0.02,0.06-0.07,0.11-0.08,0.16c-0.14-0.08-0.24-0.22-0.39-0.28c0.01,0.08-0.02,0.19-0.01,0.27c-0.22-0.11-0.44-0.37-0.69-0.2
						c-0.2-0.22-0.53-0.39-0.82-0.43c-0.06,0.23,0.13,0.44,0.29,0.59C10.29,3.55,10,3.38,9.7,3.22c-0.03,0.35-0.35,0.1-0.49,0.34
						c-0.19-0.1-0.43-0.2-0.59,0C8.12,3.14,8.09,3.83,8.4,4"/>
				</g>
			</g>
		</g>
	</g>
</g>
</svg>
