<?xml version="1.0" encoding="utf-8"?>
<!-- Generator: Adobe Illustrator 26.0.1, SVG Export Plug-In . SVG Version: 6.00 Build 0)  -->
<svg version="1.1" id="Layer_1" xmlns="http://www.w3.org/2000/svg" xmlns:xlink="http://www.w3.org/1999/xlink" x="0px" y="0px"
	 viewBox="0 0 58 58" style="enable-background:new 0 0 58 58;" xml:space="preserve">
<style type="text/css">
	.st0{fill:#E6F2DB;}
	.st1{fill:#19A74A;}
	.st2{fill:#84BC93;}
	.st3{fill:#331400;}
	.st4{fill:#EBB69D;}
	.st5{fill:#D0D2D3;}
	.st6{fill:#693E15;}
	.st7{fill:#8C5426;}
	.st8{clip-path:url(#SVGID_00000131329020113970663100000002518156412280522167_);fill:#EBB69D;}
	.st9{clip-path:url(#SVGID_00000131329020113970663100000002518156412280522167_);fill:#19A74A;}
	.st10{clip-path:url(#SVGID_00000131329020113970663100000002518156412280522167_);fill:#BBBDBF;}
	.st11{clip-path:url(#SVGID_00000131329020113970663100000002518156412280522167_);fill:#7F4C20;}
	.st12{clip-path:url(#SVGID_00000139987166070041707520000008193411384858558110_);}
	.st13{fill:#7F4C20;}
	.st14{fill:#FFFFFF;}
	.st15{fill:#71AA82;}
	.st16{fill:#BBBDBF;}
	.st17{fill:#106337;}
	.st18{fill:#905728;}
	.st19{clip-path:url(#SVGID_00000174596120352983538340000003867509229341650050_);}
	.st20{fill:#1D0000;}
	.st21{fill:#3B2314;}
	.st22{fill:#6E6C6B;}
	.st23{fill:none;}
	.st24{fill:#2B0000;}
</style>
<g>
	<circle class="st0" cx="29" cy="29" r="29"/>
	<g>
		<path class="st1" d="M41.75,43.5c0.43,0,0.83,0,1.24,0c0.06,0.81-0.08,1.55-0.58,2.21c-0.37,0.49-0.82,0.86-1.39,1.08
			C40.66,46.92,40.27,47,39.88,47c-2.49,0-4.99,0-7.48,0c-1.08,0-2.17,0-3.25,0c-2.43,0-4.85,0-7.28,0c-1.4,0-2.8,0.01-4.21,0
			c-1.16-0.01-2.06-0.53-2.67-1.52c-0.29-0.47-0.43-1-0.43-1.55c0-3.73,0-7.46,0-11.19c0-3.21,0-6.41,0-9.62c0-2.25,0-4.51,0-6.76
			c0-1.44,0.96-2.66,2.36-3c0.22-0.05,0.46-0.08,0.69-0.08c1.1-0.01,2.19,0,3.29,0c0.07,0,0.13,0,0.2,0
			c-0.02-0.2-0.06-0.39-0.07-0.58c-0.03-0.51,0.32-0.87,0.83-0.87c1.31,0,2.63,0,3.94,0c0.17,0,0.21-0.05,0.22-0.21
			c0.07-0.84,0.1-1.69,0.24-2.52c0.26-1.58,1.88-2.5,3.34-1.92c1,0.4,1.51,1.18,1.62,2.23c0.08,0.77,0.14,1.54,0.2,2.31
			c0.01,0.12,0.08,0.11,0.16,0.11c0.84,0,1.68,0,2.52,0c0.49,0,0.98,0,1.47,0c0.51,0,0.84,0.33,0.83,0.83c0,0.2-0.03,0.41-0.05,0.62
			c0.06,0,0.13,0,0.2,0c1.11,0,2.21,0,3.32,0c0.97,0,1.77,0.37,2.4,1.11c0.47,0.55,0.71,1.2,0.71,1.93c0,3.32,0,24.64,0,27.97
			c0,0.05-0.01-0.57-0.01-0.51c-0.41,0-0.81,0-1.24,0c0-0.06,0,0.56,0,0.5c0-3.28-0.01-24.55,0.01-27.83
			c0.01-1.16-0.94-1.94-1.93-1.92c-1.25,0.03-2.5,0.01-3.76,0c-0.12,0-0.19,0.04-0.27,0.14c-0.74,1.1-1.77,1.68-3.09,1.73
			c-0.5,0.02-1,0-1.5,0c-0.9,0-1.79,0.01-2.69,0.01c-1.24,0-2.48,0.01-3.72,0c-0.97-0.01-1.82-0.32-2.53-0.99
			c-0.24-0.23-0.43-0.52-0.66-0.77c-0.05-0.05-0.13-0.11-0.2-0.11c-1.26-0.01-2.52-0.01-3.77,0c-1.08,0.01-1.85,0.81-1.85,1.88
			c0,4.94,0,9.88,0,14.82c0,3.41,0,6.82,0,10.23c0,0.79,0.01,1.58,0,2.37c-0.01,1.13,0.91,1.92,1.88,1.9
			c0.86-0.02,1.72,0.01,2.59,0.01c3.67,0,7.33-0.01,11-0.01c2.85,0,5.71,0,8.56,0.01c0.47,0,0.88-0.13,1.25-0.42
			c0.43-0.34,0.63-0.81,0.67-1.35C41.76,43.82,41.75,43.67,41.75,43.5z M28.73,14.45c0.54,0,1.08,0,1.62,0c0.93,0,1.87,0,2.8,0
			c0.26,0,0.45-0.18,0.45-0.42c0-0.24-0.18-0.42-0.44-0.43c-0.07,0-0.13,0-0.2,0c-2.84,0-5.67,0-8.51,0c-0.08,0-0.16,0-0.23,0.01
			c-0.17,0.02-0.29,0.12-0.34,0.28c-0.11,0.3,0.1,0.57,0.45,0.57C25.79,14.45,27.26,14.45,28.73,14.45z M28.72,10.41
			c0.6,0,1.07-0.47,1.07-1.07c0-0.55-0.49-1.04-1.03-1.04c-0.6,0-1.08,0.47-1.08,1.06C27.67,9.93,28.14,10.41,28.72,10.41z"/>
		<path class="st1" d="M23.55,20.18c0.4-0.35,0.78-0.68,1.15-1c0.16-0.14,0.31-0.27,0.47-0.4c0.18-0.15,0.39-0.13,0.52,0.02
			c0.13,0.15,0.11,0.37-0.06,0.52c-0.65,0.57-1.3,1.14-1.95,1.7c-0.09,0.08-0.12,0.15-0.12,0.27c0.01,0.64,0,1.28,0,1.92
			c0,0.38-0.26,0.65-0.65,0.65c-1.21,0-2.43,0-3.64,0c-0.43,0-0.68-0.25-0.68-0.69c0-0.94,0-1.88,0-2.82c0-0.27,0-0.55,0-0.82
			c0.01-0.38,0.27-0.63,0.65-0.63c1.22,0,2.44,0,3.66,0c0.4,0,0.66,0.26,0.66,0.66C23.55,19.74,23.55,19.94,23.55,20.18z
			 M19.28,19.58c0,1.2,0,2.38,0,3.58c1.2,0,2.39,0,3.58,0c0-0.48,0-0.95,0-1.43c-0.38,0.33-0.74,0.65-1.1,0.96
			c-0.25,0.22-0.46,0.19-0.64-0.08c-0.35-0.54-0.7-1.08-1.05-1.63C20.03,20.9,20,20.8,20,20.71c0.01-0.16,0.11-0.27,0.26-0.31
			c0.16-0.04,0.3,0.02,0.39,0.16c0.29,0.45,0.59,0.9,0.88,1.35c0.01,0,0.03-0.01,0.03-0.01c0.42-0.36,0.83-0.72,1.25-1.08
			c0.03-0.03,0.06-0.07,0.06-0.11c0-0.37,0-0.74,0-1.13C21.66,19.58,20.48,19.58,19.28,19.58z"/>
		<path class="st1" d="M23.55,28.46c0.15-0.13,0.27-0.23,0.39-0.34c0.39-0.34,0.77-0.67,1.16-1.01c0.06-0.05,0.13-0.11,0.21-0.14
			c0.17-0.06,0.33,0.01,0.42,0.16c0.08,0.14,0.06,0.33-0.07,0.44c-0.37,0.33-0.74,0.65-1.12,0.98c-0.29,0.26-0.59,0.51-0.88,0.77
			c-0.06,0.05-0.1,0.15-0.1,0.22c-0.01,0.64,0,1.28,0,1.92c0,0.42-0.26,0.67-0.67,0.67c-1.2,0-2.39,0-3.59,0
			c-0.46,0-0.7-0.24-0.7-0.7c0-1.18,0-2.37,0-3.55c0-0.47,0.24-0.71,0.71-0.71c1.19,0,2.37,0,3.56,0c0.46,0,0.7,0.25,0.7,0.7
			C23.55,28.06,23.55,28.24,23.55,28.46z M19.28,27.87c0,1.2,0,2.39,0,3.58c1.2,0,2.39,0,3.57,0c0-0.48,0-0.94,0-1.43
			c-0.05,0.04-0.09,0.07-0.12,0.1c-0.34,0.29-0.67,0.59-1.01,0.88c-0.21,0.18-0.44,0.15-0.59-0.08c-0.1-0.16-0.2-0.32-0.31-0.48
			c-0.25-0.39-0.51-0.78-0.76-1.17c-0.13-0.2-0.09-0.41,0.09-0.53c0.18-0.11,0.38-0.06,0.51,0.15c0.04,0.06,0.07,0.11,0.11,0.17
			c0.25,0.39,0.5,0.77,0.76,1.17c0.37-0.33,0.73-0.65,1.11-0.96c0.17-0.14,0.25-0.28,0.23-0.51c-0.02-0.29-0.01-0.58-0.01-0.88
			C21.66,27.87,20.48,27.87,19.28,27.87z"/>
		<path class="st1" d="M23.55,36.75c0.19-0.16,0.35-0.3,0.51-0.45c0.36-0.32,0.73-0.64,1.09-0.95c0.14-0.12,0.31-0.14,0.45-0.05
			c0.14,0.09,0.19,0.23,0.15,0.39c-0.03,0.08-0.09,0.16-0.16,0.22c-0.64,0.57-1.29,1.13-1.94,1.69c-0.08,0.07-0.11,0.14-0.11,0.24
			c0,0.62,0,1.25,0,1.87c0,0.48-0.23,0.71-0.7,0.71c-1.21,0-2.41,0-3.62,0c-0.38,0-0.64-0.24-0.64-0.62c-0.01-1.23-0.01-2.47,0-3.7
			c0-0.38,0.25-0.63,0.63-0.63c0.76,0,1.51,0.01,2.27,0.01c0.45,0,0.9-0.01,1.35-0.01c0.48,0,0.71,0.23,0.71,0.72
			C23.55,36.36,23.55,36.54,23.55,36.75z M22.86,38.3c-0.09,0.08-0.16,0.14-0.23,0.2c-0.31,0.27-0.61,0.53-0.92,0.8
			c-0.18,0.15-0.41,0.14-0.53-0.03c-0.39-0.58-0.77-1.17-1.14-1.76c-0.11-0.17-0.04-0.37,0.13-0.47c0.18-0.11,0.37-0.06,0.51,0.15
			c0.28,0.44,0.57,0.88,0.85,1.31c0.02-0.01,0.04-0.01,0.04-0.01c0.41-0.36,0.83-0.71,1.24-1.07c0.03-0.03,0.06-0.07,0.06-0.11
			c0-0.38,0-0.75,0-1.14c-1.21,0-2.39,0-3.59,0c0,1.2,0,2.39,0,3.59c1.21,0,2.39,0,3.58,0C22.86,39.26,22.86,38.8,22.86,38.3z"/>
		<path class="st1" d="M32.47,23.86c-1.85,0-3.69,0-5.54,0c-0.29,0-0.45-0.13-0.47-0.36c-0.02-0.26,0.15-0.44,0.43-0.44
			c0.89,0,1.78,0,2.67,0c2.82,0,5.64,0,8.46,0c0.06,0,0.12,0,0.18,0.01c0.2,0.04,0.33,0.22,0.31,0.42c-0.02,0.2-0.17,0.35-0.37,0.37
			c-0.07,0.01-0.14,0-0.22,0C36.1,23.86,34.28,23.86,32.47,23.86z"/>
		<path class="st1" d="M32.47,32.14c-1.85,0-3.69,0-5.54,0c-0.29,0-0.45-0.13-0.47-0.36c-0.02-0.26,0.15-0.44,0.43-0.44
			c0.89,0,1.78,0,2.67,0c2.82,0,5.64,0,8.46,0c0.06,0,0.12,0,0.18,0.01c0.2,0.04,0.33,0.22,0.31,0.42c-0.02,0.2-0.17,0.35-0.37,0.37
			c-0.07,0.01-0.14,0-0.22,0C36.1,32.14,34.28,32.14,32.47,32.14z"/>
		<path class="st1" d="M32.47,40.42c-1.85,0-3.69,0-5.54,0c-0.29,0-0.45-0.13-0.47-0.36c-0.02-0.26,0.15-0.44,0.43-0.44
			c0.89,0,1.78,0,2.67,0c2.82,0,5.64,0,8.46,0c0.06,0,0.12,0,0.18,0.01c0.2,0.04,0.33,0.22,0.31,0.42c-0.02,0.2-0.17,0.35-0.37,0.37
			c-0.07,0.01-0.14,0-0.22,0C36.1,40.42,34.28,40.42,32.47,40.42z"/>
	</g>
</g>
</svg>
