<?xml version="1.0" encoding="utf-8"?>
<!-- Generator: Adobe Illustrator 26.0.1, SVG Export Plug-In . SVG Version: 6.00 Build 0)  -->
<svg version="1.1" id="Layer_1" xmlns="http://www.w3.org/2000/svg" xmlns:xlink="http://www.w3.org/1999/xlink" x="0px" y="0px"
	 viewBox="0 0 58 58" style="enable-background:new 0 0 58 58;" xml:space="preserve">
<style type="text/css">
	.st0{fill:#E6F2DB;}
	.st1{fill:#19A74A;}
	.st2{fill:#84BC93;}
	.st3{fill:#331400;}
	.st4{fill:#EBB69D;}
	.st5{fill:#D0D2D3;}
	.st6{fill:#693E15;}
	.st7{fill:#8C5426;}
	.st8{clip-path:url(#SVGID_00000010288367293036996800000007817349004541760135_);fill:#EBB69D;}
	.st9{clip-path:url(#SVGID_00000010288367293036996800000007817349004541760135_);fill:#19A74A;}
	.st10{clip-path:url(#SVGID_00000010288367293036996800000007817349004541760135_);fill:#BBBDBF;}
	.st11{clip-path:url(#SVGID_00000010288367293036996800000007817349004541760135_);fill:#7F4C20;}
	.st12{clip-path:url(#SVGID_00000016761106305992293910000010355252732493335197_);}
	.st13{fill:#7F4C20;}
	.st14{fill:#FFFFFF;}
	.st15{fill:#71AA82;}
	.st16{fill:#BBBDBF;}
	.st17{fill:#106337;}
	.st18{fill:#905728;}
	.st19{clip-path:url(#SVGID_00000063596052998489559820000010187583388987041934_);}
	.st20{fill:#1D0000;}
	.st21{fill:#3B2314;}
	.st22{fill:#6E6C6B;}
	.st23{fill:none;}
	.st24{fill:#2B0000;}
</style>
<g>
	<circle class="st0" cx="29" cy="29" r="29"/>
	<g>
		<path class="st1" d="M29,48.65c-6.47,0-13.89-1.14-13.89-10.06c0-7.78,5.83-19.32,13.89-19.32c8.06,0,13.89,11.54,13.89,19.32
			C42.89,47.51,35.47,48.65,29,48.65z M29,20.71c-6.84,0-12.39,10.82-12.39,17.88c0,6.05,3.71,7.91,12.39,7.91
			s12.39-1.86,12.39-7.91C41.39,31.53,35.84,20.71,29,20.71z"/>
	</g>
	<g>
		<path class="st1" d="M31.99,18.85C31.99,18.85,31.99,18.85,31.99,18.85c-0.4,0-0.83-0.09-1.29-0.19
			c-0.54-0.12-1.09-0.24-1.68-0.24c-0.58,0-1.14,0.12-1.68,0.24c-0.46,0.1-0.9,0.19-1.3,0.19c-1.75,0-1.75-1.89-1.75-2.6
			c0-0.45-0.51-1.44-0.95-2.31c-0.73-1.41-1.35-2.63-1-3.39c0.56-1.21,2.3-1.21,2.87-1.21c0.82,0,1.69,0.1,2.46,0.2
			c0.53,0.06,1.03,0.12,1.34,0.12c0.31,0,0.76-0.05,1.27-0.1C31,9.5,31.8,9.42,32.58,9.42c0.65,0,2.62,0,3.21,1.37
			c0.3,0.69-0.21,1.69-1.07,3.25c-0.44,0.81-0.99,1.81-0.99,2.21c0,0.91-0.13,1.52-0.41,1.94C33.04,18.63,32.58,18.85,31.99,18.85z
			 M29.02,17.38c0.7,0,1.35,0.14,1.92,0.26c0.4,0.09,0.78,0.17,1.05,0.17l0,0c0.28,0,0.36-0.08,0.42-0.18
			c0.11-0.16,0.24-0.54,0.24-1.38c0-0.66,0.51-1.6,1.11-2.7c0.42-0.77,1.12-2.05,1.02-2.38c-0.2-0.47-0.94-0.72-2.2-0.72
			c-0.72,0-1.5,0.6-2.18,0.67c-0.55,0.06-1.02,0.1-1.39,0.1c-0.38,0-0.89-0.06-1.48-0.13c-0.73-0.09-1.57-0.71-2.32-0.71
			c-1.06,0-1.69,0.2-1.88,0.6c-0.13,0.33,0.59,1.75,0.98,2.51c0.55,1.07,1.07,2.07,1.07,2.76c0,1.56,0.4,1.56,0.66,1.56
			c0.28,0,0.65-0.08,1.05-0.17C27.67,17.52,28.31,17.38,29.02,17.38z"/>
	</g>
	<path class="st1" d="M32.06,31.3c-0.01,0-0.03-0.01-0.08-0.01l-0.12,0l-0.43,0c-0.18,0-0.37,0-0.55,0h0c-0.22,0-0.28-0.16-0.3-0.22
		c-0.08-0.23-0.17-0.46-0.26-0.69c-0.02-0.04-0.05-0.09-0.09-0.14c-0.02-0.03-0.04-0.06-0.07-0.1l-0.19-0.3h0.36h0.12h0.08l0.39,0
		l0.39,0l0.65,0c0.06,0,0.09-0.01,0.1-0.01c0,0,0.01-0.03,0.01-0.1l0-0.23c0-0.13,0-0.26,0-0.39c0-0.06-0.01-0.08-0.03-0.1h-6.08
		c-0.02,0.02-0.03,0.04-0.02,0.1c0,0.19,0,0.38,0,0.57l0,0.25c0,0.09,0.01,0.12,0.01,0.12c0,0,0,0,0,0c0,0,0.03,0.01,0.11,0.01
		l0.16,0l0.22,0l0.22,0l0.31,0c0.4,0,0.87,0.03,1.32,0.2c0.35,0.13,0.6,0.33,0.77,0.59c0.02,0.03,0.03,0.05,0.05,0.09l0.02,0.04
		l0.16,0.29h-0.33h-0.14h-0.09h-0.09l-0.62,0h-0.62l-1.4,0c-0.05,0-0.07,0.01-0.08,0.01c0,0-0.01,0.02-0.01,0.07l0,0.49l0,0.13
		c0,0.07,0.01,0.1,0.01,0.11c0,0,0,0,0,0c0.01,0,0.04,0.01,0.1,0.01l1.39,0h0.75h0.75h0.13h0.24l-0.05,0.23
		c-0.01,0.05-0.01,0.07-0.02,0.09c-0.1,0.32-0.29,0.58-0.56,0.78c-0.38,0.28-0.84,0.44-1.4,0.47c-0.29,0.02-0.58,0.02-0.87,0.02
		c-0.12,0-0.25,0-0.37,0c-0.09,0-0.09,0.01-0.09,0.09l0,0.25c0,0.17,0,0.33,0,0.5c0,0.1,0.02,0.17,0.11,0.26
		c0.51,0.56,1.04,1.14,1.55,1.72c0.5,0.58,1,1.16,1.49,1.75l0.47,0.55c0.04,0.05,0.06,0.05,0.09,0.05l0.68,0l0.68,0
		c0.05,0,0.06-0.01,0.07-0.03c0-0.01,0-0.02-0.03-0.06c-1.03-1.25-2.1-2.55-3.22-3.76l-0.06-0.07l-0.03-0.03l-0.23-0.26l0.34-0.06
		L28,34.59c0.11-0.02,0.21-0.04,0.32-0.06c0.58-0.12,1.05-0.35,1.45-0.69c0.45-0.38,0.73-0.88,0.84-1.49
		c0.03-0.16,0.13-0.24,0.29-0.24c0.19,0,0.37,0,0.55,0l0.41,0l0.12,0c0.06,0,0.08-0.01,0.09-0.01c0,0,0.01-0.02,0.01-0.08
		c0-0.21,0-0.43,0-0.64C32.07,31.33,32.06,31.31,32.06,31.3C32.06,31.3,32.06,31.3,32.06,31.3z"/>
</g>
</svg>
